<?xml version="1.0" encoding="UTF-8"?>
<svg width="128px" height="128px" viewBox="0 0 128 128" version="1.1" xmlns="http://www.w3.org/2000/svg" xmlns:xlink="http://www.w3.org/1999/xlink">
    <!-- Generator: Sketch 48.2 (47327) - http://www.bohemiancoding.com/sketch -->
    <title>Artboard</title>
    <desc>Created with Sketch.</desc>
    <defs>
        <circle id="path-1" cx="48" cy="48" r="48"></circle>
        <filter x="-7.3%" y="-5.2%" width="114.6%" height="114.6%" filterUnits="objectBoundingBox" id="filter-2">
            <feOffset dx="0" dy="2" in="SourceAlpha" result="shadowOffsetOuter1"></feOffset>
            <feGaussianBlur stdDeviation="2" in="shadowOffsetOuter1" result="shadowBlurOuter1"></feGaussianBlur>
            <feColorMatrix values="0 0 0 0 0.117647059   0 0 0 0 0.117647059   0 0 0 0 0.117647059  0 0 0 0.25 0" type="matrix" in="shadowBlurOuter1"></feColorMatrix>
        </filter>
    </defs>
    <g id="Page-1" stroke="none" stroke-width="1" fill="none" fill-rule="evenodd">
        <g id="Artboard">
            <g id="Button/Widget/Closed" transform="translate(16.000000, 16.000000)">
                <g id="Button/Widget/Background/Red">
                    <g id="Oval">
                        <use fill="black" fill-opacity="1" filter="url(#filter-2)" xlink:href="#path-1"></use>
                        <use fill="#E10A14" fill-rule="evenodd" xlink:href="#path-1"></use>
                    </g>
                </g>
                <g id="Icons/Private-reply/White" transform="translate(28.800000, 28.800000)" fill="#FFFFFF" fill-rule="evenodd" stroke-width="1">
                    <g id="private-reply" transform="translate(0.000000, 1.583333)">
                        <path d="M23.7515833,22.1666667 C23.5109167,22.1666667 23.2670833,22.11125 23.0438333,22.0004167 C22.5070833,21.7328333 22.16825,21.1834167 22.16825,20.5833333 L22.16825,17.4166667 L20.5849167,17.4166667 L20.5849167,14.25 L23.7515833,14.25 C24.6255833,14.25 25.3349167,14.9593333 25.3349167,15.8333333 L25.3349167,17.4166667 L29.1349167,14.5666667 C29.4088333,14.3608333 29.7429167,14.25 30.0849167,14.25 L34.8349167,14.25 L34.8349167,3.16666667 L19.0015833,3.16666667 L19.0015833,7.91666667 L15.8349167,7.91666667 L15.8349167,3.16666667 C15.8349167,1.41866667 17.2551667,0 19.0015833,0 L34.8349167,0 C36.5813333,0 38.0015833,1.41866667 38.0015833,3.16666667 L38.0015833,14.25 C38.0015833,15.9964167 36.5813333,17.4166667 34.8349167,17.4166667 L30.6121667,17.4166667 L24.7015833,21.85 C24.4213333,22.059 24.08725,22.1666667 23.7515833,22.1666667 Z" id="Shape" fill-rule="nonzero"></path>
                        <path d="M12.66825,22.1666667 C9.17541667,22.1666667 6.33491667,19.3261667 6.33491667,15.8333333 C6.33491667,12.3420833 9.17541667,9.5 12.66825,9.5 C16.1610833,9.5 19.0015833,12.3420833 19.0015833,15.8333333 C19.0015833,19.3261667 16.1610833,22.1666667 12.66825,22.1666667 Z M12.66825,12.6666667 C10.9218333,12.6666667 9.50158333,14.0853333 9.50158333,15.8333333 C9.50158333,17.57975 10.9218333,19 12.66825,19 C14.4146667,19 15.8349167,17.57975 15.8349167,15.8333333 C15.8349167,14.0853333 14.4146667,12.6666667 12.66825,12.6666667 Z" id="Shape" fill-rule="nonzero"></path>
                        <path d="M25.3349167,34.8333333 L0.00158333333,34.8333333 L0.00158333333,33.25 C0.00158333333,27.6560833 5.21075,23.75 12.66825,23.75 C20.12575,23.75 25.3349167,27.6560833 25.3349167,33.25 L25.3349167,34.8333333 Z M3.42,31.6666667 L21.9180833,31.6666667 C20.97125,28.804 17.4325,26.9166667 12.6698333,26.9166667 C7.90716667,26.9166667 4.36683333,28.804 3.42,31.6666667 Z" id="Shape" fill-rule="nonzero"></path>
                    </g>
                </g>
            </g>
        </g>
    </g>
</svg>