<svg id="logo" xmlns="http://www.w3.org/2000/svg" width="638.128" height="127.957" viewBox="0 0 1046.969 209.938"><defs><style>.cls-1,.cls-2{fill:#1e1e1e;fill-rule:evenodd}.cls-2{fill:#df1f26}</style></defs><path id="napoleoncat" class="cls-1" d="M614.487 718.174c-1.956-1.819-3.828-1.811-6.672-.411-.922.385-2.025.8-5.169.642-3.673-.176-6.446-4.137-6.446-7.679l.213-12.253a5.285 5.285 0 0 0-5.289-5.281c-2.921 0-5.251 1.774-5.251 4.69l-.039 13c0 3.417-2.558 7.347-6.23 7.523a12.162 12.162 0 0 1-4.745-.4c-1.9-.554-4.838-1.549-6.794.171a5.277 5.277 0 0 0-.467 7.455c1.147 1.3 4.036 3.365 10.783 3.365.552 0 1.129-.015 1.734-.043a16.878 16.878 0 0 0 11.378-4.946 15.118 15.118 0 0 0 10.642 4.946c.576.028 1.129.041 1.656.041 7.014 0 9.973-2.309 10.955-3.359a5.277 5.277 0 0 0-.259-7.461zm14.266-160.408a14.016 14.016 0 0 0-1.432-.22c-6.735-.669-13.221 5.56-14.638 12.321a13.315 13.315 0 0 0 1.9 10.088c1.963 3 5.6 4.5 9.113 5.232s6.477.612 9.48-1.346a13.4 13.4 0 0 0 3.891-18.564c-1.961-2.999-4.804-6.777-8.314-7.511zm50.487 35.688c-6.008-16.827-22.167-65.222-69.729-73.339s-77.967 32.328-89.232 46.208c-13.7 16.876-38.223 30.6-50.364 36.735a8.859 8.859 0 0 0-4.277 11.1l3.639 9.449a8.87 8.87 0 0 0 8.79 5.676c6.128-.356 16.474-.731 30.315-.422a8.934 8.934 0 0 0 9.09-8.212l.039-.454c.507-13.329.248-25.914 3.934-26.634 7.266-1.42 19.752 8.839 25.665 15.54 4.667 5.289 14.581 18.512 17.646 21.9a8.886 8.886 0 0 0 5.411 2.883q9.561 1.3 19.827 3.041 10.25 1.749 19.686 3.7a9.034 9.034 0 0 0 7.656-2q5.781-4.884 17.319-11.161c7.9-4.183 14.488-7.408 19.895-9.617 6.1-2.571 9.882-4.538 13.316-5.089 7.922-3 6.221 9.88 4.088 23.047a104.363 104.363 0 0 1-2.016 11.81l-.015.075a8.9 8.9 0 0 0 5.907 10.2c11.935 3.981 17.26 6.835 22.5 9.032a8.9 8.9 0 0 0 9.976-2.14l7.031-7.569a8.862 8.862 0 0 0-.15-12.228c-9.755-10.005-28.687-31.192-35.947-51.531zm-26.568-15.338A27.715 27.715 0 0 1 622.852 600a27.871 27.871 0 0 1-2.985-.46c-7.247-1.515-14.132-5.117-18.184-11.3s-4.782-14.218-3.266-21.453c3.13-14.936 18.051-26.559 33-23.422 7.247 1.514 13.27 7.758 17.321 13.946a27.455 27.455 0 0 1 3.934 20.805zM551.52 685.107a5.861 5.861 0 0 1-7.273 3.634c-16.748-5.154-30.311-6.709-42.621-5.173a5.808 5.808 0 0 1-6.219-4.044 5.863 5.863 0 0 1 4.889-7.587c16.049-1.989 31.826.859 47.431 5.633a5.841 5.841 0 0 1 3.793 7.537zm.334 19.468a6.005 6.005 0 0 1-6.28 5.161c-18.324-.2-23.53-.169-35.188 4.067a5.811 5.811 0 0 1-6.965-2.559 5.86 5.86 0 0 1 3.073-8.485c15.2-5.509 23.7-5.87 39.98-4.688a5.845 5.845 0 0 1 5.38 6.504zm82.311-19.468a5.861 5.861 0 0 0 7.273 3.634c16.748-5.154 30.311-6.709 42.621-5.173a5.808 5.808 0 0 0 6.219-4.044 5.863 5.863 0 0 0-4.889-7.587c-16.049-1.989-31.826.859-47.431 5.633a5.841 5.841 0 0 0-3.793 7.537zm-.334 19.468a6.005 6.005 0 0 0 6.28 5.161c18.324-.2 23.53-.169 35.188 4.067a5.811 5.811 0 0 0 6.965-2.559 5.86 5.86 0 0 0-3.073-8.485c-15.2-5.509-23.7-5.87-39.98-4.688a5.845 5.845 0 0 0-5.38 6.504zm142.222-132.319h19.519l35.8 59.579h1l-1-17.126v-42.453h16.658v88.876h-17.651l-37.79-62.932h-1l1 17.131v45.8h-16.536v-88.875zm121.156 80.434h-1a27.5 27.5 0 0 1-6.9 5.957 19.568 19.568 0 0 1-10.379 2.485 25.249 25.249 0 0 1-8.889-1.554 23.013 23.013 0 0 1-7.275-4.282 19.16 19.16 0 0 1-4.847-6.576 20.233 20.233 0 0 1-1.739-8.442 18.979 18.979 0 0 1 1.864-8.5 19.342 19.342 0 0 1 5.221-6.516 23.536 23.536 0 0 1 7.895-4.16 32.869 32.869 0 0 1 9.881-1.429 42.965 42.965 0 0 1 9.821.931 48.147 48.147 0 0 1 6.343 1.926v-1.861a9.936 9.936 0 0 0-3.855-8.009 14.6 14.6 0 0 0-9.573-3.165q-8.454 0-14.295 7.078l-11.81-8.07q9.7-12.162 26.478-12.165 14.17 0 21.631 6.641t7.457 19.673v38.808h-16.029v-8.77zm0-18.248a33.8 33.8 0 0 0-5.906-2.169 25.807 25.807 0 0 0-6.651-.81q-5.846 0-9.014 2.546a7.76 7.76 0 0 0-3.169 6.269 7.032 7.032 0 0 0 3.044 5.957 11.558 11.558 0 0 0 7.024 2.234 14.975 14.975 0 0 0 10.631-4.282 13.847 13.847 0 0 0 4.041-9.745zm25.142-38.107h15.292v9.308h.993a18.448 18.448 0 0 1 6.963-6.576 23.045 23.045 0 0 1 11.685-2.732 26.4 26.4 0 0 1 11.126 2.42 29.793 29.793 0 0 1 9.321 6.7 31.824 31.824 0 0 1 6.4 10.243 37.126 37.126 0 0 1 0 26.067 31.8 31.8 0 0 1-6.4 10.239 29.742 29.742 0 0 1-9.321 6.706 26.474 26.474 0 0 1-11.126 2.42 23.045 23.045 0 0 1-11.684-2.73 18.426 18.426 0 0 1-6.963-6.58h-.993l.993 8.688v16.909h-16.286v-81.082zm31.577 49.774a15.589 15.589 0 0 0 6.153-1.238 16.209 16.209 0 0 0 5.159-3.476 16.9 16.9 0 0 0 3.6-5.464 19.6 19.6 0 0 0 0-14.4 16.95 16.95 0 0 0-3.6-5.459 16.2 16.2 0 0 0-5.159-3.477 15.593 15.593 0 0 0-6.153-1.242 16.241 16.241 0 0 0-6.156 1.181 15.46 15.46 0 0 0-5.16 3.412 16.962 16.962 0 0 0-3.6 5.464 20.312 20.312 0 0 0 0 14.646 16.968 16.968 0 0 0 3.6 5.463 15.4 15.4 0 0 0 5.16 3.412 16.238 16.238 0 0 0 6.156 1.178zm72.272-49.774a33.9 33.9 0 0 1 12.99 2.42 30.06 30.06 0 0 1 16.91 16.945 36.308 36.308 0 0 1 0 26.067 30.092 30.092 0 0 1-16.91 16.945 36.074 36.074 0 0 1-25.98 0 30.148 30.148 0 0 1-16.91-16.945 36.266 36.266 0 0 1 0-26.067 30.117 30.117 0 0 1 16.906-16.945 33.931 33.931 0 0 1 12.994-2.42zm0 49.774a15.948 15.948 0 0 0 6.03-1.177 15.311 15.311 0 0 0 5.16-3.412 16.2 16.2 0 0 0 3.54-5.463 21.123 21.123 0 0 0 0-14.646 16.2 16.2 0 0 0-3.54-5.464 15.371 15.371 0 0 0-5.16-3.412 15.952 15.952 0 0 0-6.03-1.181 15.773 15.773 0 0 0-6.09 1.181 15.53 15.53 0 0 0-5.1 3.412 16.2 16.2 0 0 0-3.54 5.464 21.276 21.276 0 0 0 0 14.646 16.2 16.2 0 0 0 3.54 5.463 15.468 15.468 0 0 0 5.1 3.412 15.77 15.77 0 0 0 6.09 1.177zm40.48 15.023v-89.218h16.28v89.218h-16.28zm85.61-16.667a34.073 34.073 0 0 1-11.36 12.052q-7.14 4.6-17.46 4.614a33.678 33.678 0 0 1-12.87-2.406 30.711 30.711 0 0 1-17.05-16.986 33.911 33.911 0 0 1-2.44-12.973 33.327 33.327 0 0 1 2.35-12.475 31.518 31.518 0 0 1 16.58-17.336 30.655 30.655 0 0 1 12.74-2.621 33.157 33.157 0 0 1 13.05 2.406 26.588 26.588 0 0 1 9.58 6.691 28.762 28.762 0 0 1 5.86 10.111 38.9 38.9 0 0 1 2 12.661v1.489a8.623 8.623 0 0 0-.12 1.364 7.207 7.207 0 0 0-.13 1.368l-45.86.052a16.978 16.978 0 0 0 2.05 6.388 15.6 15.6 0 0 0 3.86 4.463 15 15 0 0 0 5.04 2.6 19.56 19.56 0 0 0 5.6.8 15.854 15.854 0 0 0 9.25-2.556 18.561 18.561 0 0 0 5.78-6.4zm-14.82-23.57a10.283 10.283 0 0 0-1.06-3.6 12.531 12.531 0 0 0-2.74-3.725 14.308 14.308 0 0 0-4.47-2.847 16.6 16.6 0 0 0-6.41-1.11 14.96 14.96 0 0 0-9.2 2.989 15.7 15.7 0 0 0-5.58 8.323zm56.28-24.56a33.931 33.931 0 0 1 12.99 2.42 30.863 30.863 0 0 1 10.19 6.7 30.455 30.455 0 0 1 6.71 10.243 36.168 36.168 0 0 1 0 26.067 30.437 30.437 0 0 1-6.71 10.239 30.811 30.811 0 0 1-10.19 6.706 36.074 36.074 0 0 1-25.98 0 30.092 30.092 0 0 1-16.91-16.945 36.308 36.308 0 0 1 0-26.067 30.06 30.06 0 0 1 16.91-16.945 33.859 33.859 0 0 1 12.99-2.418zm0 49.774a15.948 15.948 0 0 0 6.03-1.177 15.51 15.51 0 0 0 5.16-3.412 16.2 16.2 0 0 0 3.54-5.463 21.276 21.276 0 0 0 0-14.646 16.2 16.2 0 0 0-3.54-5.464 15.571 15.571 0 0 0-5.16-3.412 15.952 15.952 0 0 0-6.03-1.181 15.737 15.737 0 0 0-6.09 1.181 15.53 15.53 0 0 0-5.1 3.412 16.2 16.2 0 0 0-3.54 5.464 21.123 21.123 0 0 0 0 14.646 16.2 16.2 0 0 0 3.54 5.463 15.468 15.468 0 0 0 5.1 3.412 15.734 15.734 0 0 0 6.09 1.177zm55.76-39.842h1a20.63 20.63 0 0 1 7.7-7.265 22.635 22.635 0 0 1 11.07-2.667 25.425 25.425 0 0 1 10.07 1.862 18.455 18.455 0 0 1 7.14 5.277 23.156 23.156 0 0 1 4.23 8.191 36.71 36.71 0 0 1 1.43 10.611v38.856h-16.28v-36.868q0-6.579-2.93-9.746-2.91-3.162-8.51-3.164a11.893 11.893 0 0 0-5.91 1.428 13.751 13.751 0 0 0-4.35 3.849 17.439 17.439 0 0 0-2.73 5.71 25.654 25.654 0 0 0-.93 7.014v31.777h-16.29v-64.8h15.29v9.932zm136.82 39.244a44.081 44.081 0 0 1-15.54 11.624 51.574 51.574 0 0 1-38.48.537 46.153 46.153 0 0 1-14.73-9.42 44.065 44.065 0 0 1-9.82-14.127 44.773 44.773 0 0 1 0-35.18 44.109 44.109 0 0 1 9.82-14.127 46.153 46.153 0 0 1 14.73-9.42 48.558 48.558 0 0 1 18.46-3.46 46.507 46.507 0 0 1 18.84 3.577 43.846 43.846 0 0 1 14.48 10.376l-11.81 10.971a31.411 31.411 0 0 0-9.14-7.037 26.726 26.726 0 0 0-12.24-2.624 32.6 32.6 0 0 0-11.69 2.088 28.554 28.554 0 0 0-9.51 5.9 27.819 27.819 0 0 0-6.4 9.241 32.22 32.22 0 0 0 0 24.208 27.779 27.779 0 0 0 6.4 9.241 28.425 28.425 0 0 0 9.51 5.9 32.5 32.5 0 0 0 11.69 2.088 28.954 28.954 0 0 0 13.24-2.923 32.381 32.381 0 0 0 10.26-8.285zm46.78 7.179h-1a27.239 27.239 0 0 1-6.9 5.957 19.546 19.546 0 0 1-10.37 2.485 25.2 25.2 0 0 1-8.89-1.554 22.993 22.993 0 0 1-7.28-4.282 19.3 19.3 0 0 1-4.85-6.576 20.26 20.26 0 0 1-1.73-8.442 19.031 19.031 0 0 1 1.86-8.5 19.255 19.255 0 0 1 5.22-6.516 23.551 23.551 0 0 1 7.9-4.16 32.825 32.825 0 0 1 9.88-1.429 42.974 42.974 0 0 1 9.82.931 48.087 48.087 0 0 1 6.34 1.926v-1.861a9.952 9.952 0 0 0-3.85-8.009 14.636 14.636 0 0 0-9.58-3.165q-8.445 0-14.29 7.078l-11.81-8.07q9.69-12.162 26.48-12.165 14.16 0 21.63 6.641 7.455 6.644 7.45 19.673v38.483h-16.03v-8.445zm0-18.248a33.9 33.9 0 0 0-5.91-2.169 25.739 25.739 0 0 0-6.65-.81c-3.89 0-6.9.849-9.01 2.546a7.764 7.764 0 0 0-3.17 6.269 7.05 7.05 0 0 0 3.04 5.957 11.566 11.566 0 0 0 7.03 2.234 14.97 14.97 0 0 0 10.63-4.282 13.875 13.875 0 0 0 4.04-9.745zm26.14-28.05h-6.91v-13.9h6.91V571.55h16.29v20.94h11.06v13.9h-11.06v30.136a17.655 17.655 0 0 0 .43 4.031 6.524 6.524 0 0 0 1.68 3.134 6.168 6.168 0 0 0 4.97 2.044c1.41 0 3.87.008 3.87.008l-.07 15.316s-4.25.071-6.91.071a22.227 22.227 0 0 1-8.26-1.459 17.379 17.379 0 0 1-6.15-3.992q-5.85-5.7-5.85-16.217v-33.07z" transform="translate(-465.031 -519.062)"/><path id="dot" class="cls-2" d="M1512 653.412a7.73 7.73 0 1 1-7.73-7.719 7.724 7.724 0 0 1 7.73 7.719z" transform="translate(-465.031 -519.062)"/></svg>